<svg id="Camada_1" data-name="Camada 1" xmlns="http://www.w3.org/2000/svg" viewBox="0 0 2000 500"><defs><style>.cls-1,.cls-3{fill:#fff;}.cls-2,.cls-3{font-size:270px;font-family:OpenSans-Extrabold, Open Sans;font-weight:800;}</style></defs><title>logo branca</title><path id="Shape" class="cls-1" d="M430.55,266.69H63.38l50.9-144.61A33.36,33.36,0,0,1,145.74,99.8H305.38Z"/><path class="cls-1" d="M255.31,99.8v33.38a8.35,8.35,0,0,1-16.69,0V99.8Z"/><path class="cls-1" d="M110.51,241.66a8.34,8.34,0,0,1-7.87-11.12l31.33-89a25.08,25.08,0,0,1,23.61-16.69h14.28a8.35,8.35,0,1,1,0,16.69H157.58a8.36,8.36,0,0,0-7.87,5.57l-31.32,89A8.35,8.35,0,0,1,110.51,241.66Z"/><path class="cls-1" d="M280.35,166.55H213.59a8.34,8.34,0,0,1-8.35-8.34V141.52a8.34,8.34,0,0,1,8.35-8.34h66.76"/><path class="cls-1" d="M55,416.9h83.45v58.41A16.69,16.69,0,0,1,121.79,492H71.72A16.69,16.69,0,0,1,55,475.31Z"/><path class="cls-1" d="M355.45,416.9H438.9v58.41A16.69,16.69,0,0,1,422.21,492H372.14a16.69,16.69,0,0,1-16.69-16.69Z"/><path class="cls-1" d="M348.19,266.69H63.38A33.38,33.38,0,0,0,30,300.07V425.24a8.35,8.35,0,0,0,8.34,8.35H455.59a8.34,8.34,0,0,0,8.34-8.35V300.07a33.11,33.11,0,0,0-21.11-31Z"/><path class="cls-1" d="M80.07,300.07h33.38a33.39,33.39,0,0,1,33.38,33.38,16.69,16.69,0,0,1-16.69,16.69H80.07a16.69,16.69,0,0,1-16.69-16.69V316.76A16.69,16.69,0,0,1,80.07,300.07Z"/><path class="cls-1" d="M380.48,300.07h33.38a16.69,16.69,0,0,1,16.69,16.69v16.69a16.69,16.69,0,0,1-16.69,16.69H363.79a16.69,16.69,0,0,1-16.69-16.69A33.39,33.39,0,0,1,380.48,300.07Z"/><path class="cls-1" d="M80.07,400.21H96.76a8.34,8.34,0,0,1,8.34,8.34v25H71.72v-25A8.35,8.35,0,0,1,80.07,400.21Z"/><path class="cls-1" d="M397.17,400.21h16.69a8.35,8.35,0,0,1,8.35,8.34v25H388.83v-25A8.34,8.34,0,0,1,397.17,400.21Z"/><rect id="Rectangle-path" class="cls-1" x="180.21" y="350.14" width="133.52" height="50.07" rx="8.34"/><rect class="cls-1" x="188.55" y="350.14" width="116.83" height="50.07" rx="8.34"/><path class="cls-1" d="M399.59,299.47,481.71,241A76.4,76.4,0,0,0,514,178.78V60.84A4.18,4.18,0,0,0,511.5,57L398.84,8.35a4.13,4.13,0,0,0-3.34,0L282.85,57a4.17,4.17,0,0,0-2.5,3.83V178.78A76.39,76.39,0,0,0,312.63,241l82.12,58.46A4.18,4.18,0,0,0,399.59,299.47Z"/><path class="cls-1" d="M332,213.82a43.23,43.23,0,0,1-18.26-35V80L397.17,44,480.62,80v98.74a43.19,43.19,0,0,1-18.26,35.05l-65.19,46.4Z"/><path class="cls-1" d="M332,213.82a43.23,43.23,0,0,1-18.26-35V80L397.17,44,480.62,80v98.74a43.19,43.19,0,0,1-18.26,35.05l-65.19,46.4Z"/><path class="cls-1" d="M380.48,199.56a8.35,8.35,0,0,1-5-1.67l-33.38-25a8.35,8.35,0,0,1,10-13.36L379,179.68l61.7-77.13a8.35,8.35,0,0,1,13,10.42L387,196.42A8.35,8.35,0,0,1,380.48,199.56Z"/><text class="cls-2" transform="translate(551.14 326.14)">Sicherheit</text><text class="cls-3" transform="translate(551.14 326.14)">Sicherheit</text></svg>