<svg id="Camada_1" data-name="Camada 1" xmlns="http://www.w3.org/2000/svg" xmlns:xlink="http://www.w3.org/1999/xlink" viewBox="0 0 2000 500"><defs><style>.cls-1{fill:#11cdef;}.cls-2{fill:#172b4d;}.cls-3{fill:#b0d3f0;}.cls-4{fill:#5e72e4;}.cls-5{fill:#fb6340;}.cls-6{fill:#f5365c;}.cls-7{fill:#a5a5a4;}.cls-8{fill:#d1d4d1;}.cls-9{fill:#2dce89;}.cls-10{fill:#955ba5;}.cls-11{fill:#f4f5f7;}.cls-12{fill:#3d324c;}.cls-13{font-size:270px;font-family:OpenSans-Extrabold, Open Sans;font-weight:800;}.cls-14{fill:url(#Gradiente_sem_nome_9);}</style><linearGradient id="Gradiente_sem_nome_9" x1="548.01" y1="222.71" x2="1951.27" y2="222.71" gradientUnits="userSpaceOnUse"><stop offset="0" stop-color="#5e72e4"/><stop offset="0.9" stop-color="#11cdef"/></linearGradient></defs><title>logo-texto</title><path id="Shape" class="cls-1" d="M415.55,266.69H48.38l50.9-144.61A33.36,33.36,0,0,1,130.74,99.8H290.38Z"/><path class="cls-2" d="M240.31,99.8v33.38a8.35,8.35,0,0,1-16.69,0V99.8Z"/><path class="cls-3" d="M95.51,241.66a8.34,8.34,0,0,1-7.87-11.12l31.33-89a25.08,25.08,0,0,1,23.61-16.69h14.28a8.35,8.35,0,1,1,0,16.69H142.58a8.36,8.36,0,0,0-7.87,5.57l-31.32,89A8.35,8.35,0,0,1,95.51,241.66Z"/><path class="cls-2" d="M265.35,166.55H198.59a8.34,8.34,0,0,1-8.35-8.34V141.52a8.34,8.34,0,0,1,8.35-8.34h66.76"/><path class="cls-2" d="M40,416.9h83.45v58.41A16.69,16.69,0,0,1,106.79,492H56.72A16.69,16.69,0,0,1,40,475.31Z"/><path class="cls-2" d="M340.45,416.9H423.9v58.41A16.69,16.69,0,0,1,407.21,492H357.14a16.69,16.69,0,0,1-16.69-16.69Z"/><path class="cls-4" d="M333.19,266.69H48.38A33.38,33.38,0,0,0,15,300.07V425.24a8.35,8.35,0,0,0,8.34,8.35H440.59a8.34,8.34,0,0,0,8.34-8.35V300.07a33.11,33.11,0,0,0-21.11-31Z"/><path class="cls-5" d="M65.07,300.07H98.45a33.39,33.39,0,0,1,33.38,33.38,16.69,16.69,0,0,1-16.69,16.69H65.07a16.69,16.69,0,0,1-16.69-16.69V316.76A16.69,16.69,0,0,1,65.07,300.07Z"/><path class="cls-5" d="M365.48,300.07h33.38a16.69,16.69,0,0,1,16.69,16.69v16.69a16.69,16.69,0,0,1-16.69,16.69H348.79a16.69,16.69,0,0,1-16.69-16.69A33.39,33.39,0,0,1,365.48,300.07Z"/><path class="cls-6" d="M65.07,400.21H81.76a8.34,8.34,0,0,1,8.34,8.34v25H56.72v-25A8.35,8.35,0,0,1,65.07,400.21Z"/><path class="cls-6" d="M382.17,400.21h16.69a8.35,8.35,0,0,1,8.35,8.34v25H373.83v-25A8.34,8.34,0,0,1,382.17,400.21Z"/><rect id="Rectangle-path" class="cls-7" x="165.21" y="350.14" width="133.52" height="50.07" rx="8.34"/><rect class="cls-8" x="173.55" y="350.14" width="116.83" height="50.07" rx="8.34"/><path class="cls-9" d="M384.59,299.47,466.71,241A76.4,76.4,0,0,0,499,178.78V60.84A4.18,4.18,0,0,0,496.5,57L383.84,8.35a4.13,4.13,0,0,0-3.34,0L267.85,57a4.17,4.17,0,0,0-2.5,3.83V178.78A76.39,76.39,0,0,0,297.63,241l82.12,58.46A4.18,4.18,0,0,0,384.59,299.47Z"/><path class="cls-10" d="M317,213.82a43.23,43.23,0,0,1-18.26-35V80L382.17,44,465.62,80v98.74a43.19,43.19,0,0,1-18.26,35.05l-65.19,46.4Z"/><path class="cls-11" d="M317,213.82a43.23,43.23,0,0,1-18.26-35V80L382.17,44,465.62,80v98.74a43.19,43.19,0,0,1-18.26,35.05l-65.19,46.4Z"/><path class="cls-12" d="M365.48,199.56a8.35,8.35,0,0,1-5-1.67l-33.38-25a8.35,8.35,0,0,1,10-13.36L364,179.68l61.7-77.13a8.35,8.35,0,0,1,13,10.42L372,196.42A8.35,8.35,0,0,1,365.48,199.56Z"/><text class="cls-13" transform="translate(536.14 326.14)">Sicherheit</text><path class="cls-14" d="M683,267.6q0,17.92-9.1,31.84t-26.23,21.62q-17.14,7.71-40.21,7.71-19.26,0-32.3-2.7A119.44,119.44,0,0,1,548,316.64v-46.4a155.78,155.78,0,0,0,31,11.93,115.27,115.27,0,0,0,29.53,4.28q11.6,0,17-4a12.36,12.36,0,0,0,5.4-10.35,11.4,11.4,0,0,0-2.17-6.92,25.42,25.42,0,0,0-7-6q-4.82-3-25.64-12.39-18.86-8.57-28.28-16.61a50.84,50.84,0,0,1-14-18.46q-4.56-10.41-4.55-24.65,0-26.62,19.38-41.53T622,130.62q29.92,0,61,13.85l-16,40.21q-27-12.39-46.67-12.4-10.15,0-14.77,3.56a10.77,10.77,0,0,0-4.61,8.84q0,5.67,5.86,10.15t31.84,16.34q24.91,11.22,34.61,24.06T683,267.6Z"/><path class="cls-14" d="M708.72,139.59q0-11.61,6.46-17.27T736,116.65q14.36,0,21,5.8t6.59,17.14q0,22.68-27.55,22.67Q708.71,162.26,708.72,139.59Zm52.86,186.54H710V176.77h51.55Z"/><path class="cls-14" d="M865.6,328.77Q829,328.77,810,309t-18.92-56.82q0-37.19,20.44-57.62t58.14-20.43a108.9,108.9,0,0,1,48.91,11.34l-15.16,38.1A165.35,165.35,0,0,0,886.17,217a55.86,55.86,0,0,0-16.48-2.44q-12.53,0-19.38,9.76t-6.86,27.55q0,35.86,26.5,35.86,22.68,0,43.51-13.18v41Q893.56,328.78,865.6,328.77Z"/><path class="cls-14" d="M1037.12,326.13V244.66q0-30.06-17.8-30.06-12.66,0-18.65,10.61t-6,35.27v65.65H943.12V121h51.55v29.13q0,19.78-2.11,45.09h2.37q7.38-11.59,17.54-16.35t23.59-4.74q25.05,0,39,14.43T1088.93,229v97.16Z"/><path class="cls-14" d="M1196.11,328.77q-37.3,0-57.94-19.84t-20.63-56.49q0-37.84,19.12-58.07t54.58-20.24q33.73,0,52.14,17.6t18.39,50.69v22.94h-92.16q.53,12.52,9.17,19.64t23.53,7.12a113.84,113.84,0,0,0,25-2.57,123.09,123.09,0,0,0,24.72-8.77v37.05a90.89,90.89,0,0,1-25,8.57A173.48,173.48,0,0,1,1196.11,328.77Zm-3-119.57a21.47,21.47,0,0,0-15.23,5.73q-6.12,5.73-7.18,18H1215q-.27-10.81-6.13-17.27T1193.08,209.2Z"/><path class="cls-14" d="M1381.08,174.13a75,75,0,0,1,12.79,1.05l2.9.53-4.62,48.65q-6.33-1.59-17.53-1.58-16.87,0-24.52,7.71t-7.65,22.21v73.43H1290.9V176.77h38.37l8,23.86h2.5a51.59,51.59,0,0,1,18-19.18Q1369.35,174.13,1381.08,174.13Z"/><path class="cls-14" d="M1511.6,326.13V244.66q0-30.06-17.8-30.06-12.66,0-18.66,10.61t-6,35.27v65.65H1417.6V121h51.55v29.13q0,19.78-2.11,45.09h2.37q7.38-11.59,17.53-16.35t23.6-4.74q25.05,0,39,14.43T1563.41,229v97.16Z"/><path class="cls-14" d="M1670.59,328.77q-37.3,0-57.94-19.84T1592,252.44q0-37.84,19.11-58.07t54.58-20.24q33.75,0,52.15,17.6t18.39,50.69v22.94h-92.16q.53,12.52,9.17,19.64t23.53,7.12a113.84,113.84,0,0,0,25-2.57,123.09,123.09,0,0,0,24.72-8.77v37.05a91,91,0,0,1-25,8.57A173.56,173.56,0,0,1,1670.59,328.77Zm-3-119.57a21.47,21.47,0,0,0-15.23,5.73q-6.12,5.73-7.18,18h44.29q-.26-10.81-6.13-17.27T1667.56,209.2Z"/><path class="cls-14" d="M1764.33,139.59q0-11.61,6.46-17.27t20.83-5.67q14.37,0,21,5.8t6.59,17.14q0,22.68-27.55,22.67Q1764.32,162.26,1764.33,139.59Zm52.86,186.54h-51.54V176.77h51.54Z"/><path class="cls-14" d="M1926.35,288q10.43,0,24.92-5.15v37.58a101,101,0,0,1-19.84,6.39,112.68,112.68,0,0,1-22.08,1.91q-26,0-37.44-12.72T1860.44,277V215.39h-18.07v-21l22.94-16.21,13.32-31.38h33.75v29.93H1949v38.62h-36.65v58.14Q1912.38,288,1926.35,288Z"/></svg>