<svg id="Camada_1" data-name="Camada 1" xmlns="http://www.w3.org/2000/svg" viewBox="0 0 512 512"><defs><style>.cls-1{fill:#11cdef;}.cls-2{fill:#172b4d;}.cls-3{fill:#b0d3f0;}.cls-4{fill:#5e72e4;}.cls-5{fill:#fb6340;}.cls-6{fill:#f5365c;}.cls-7{fill:#a5a5a4;}.cls-8{fill:#d1d4d1;}.cls-9{fill:#2dce89;}.cls-10{fill:#955ba5;}.cls-11{fill:#f4f5f7;}.cls-12{fill:#3d324c;}</style></defs><title>logo</title><path id="Shape" class="cls-1" d="M423.72,273.66H35.31l53.85-153A35.32,35.32,0,0,1,122.44,97.1H291.31Z"/><path class="cls-2" d="M238.34,97.1v35.31a8.83,8.83,0,1,1-17.65,0V97.1Z"/><path class="cls-3" d="M85.17,247.17a8.83,8.83,0,0,1-8.33-11.76L110,141.24a26.54,26.54,0,0,1,25-17.65h15.11a8.83,8.83,0,1,1,0,17.65H135a8.83,8.83,0,0,0-8.32,5.9L93.5,241.28A8.81,8.81,0,0,1,85.17,247.17Z"/><path class="cls-2" d="M264.83,167.72H194.21a8.82,8.82,0,0,1-8.83-8.82V141.24a8.83,8.83,0,0,1,8.83-8.83h70.62"/><path class="cls-2" d="M26.48,432.55h88.28v61.79A17.66,17.66,0,0,1,97.1,512h-53a17.66,17.66,0,0,1-17.66-17.66Z"/><path class="cls-2" d="M344.28,432.55h88.27v61.79A17.65,17.65,0,0,1,414.9,512h-53a17.65,17.65,0,0,1-17.65-17.66Z"/><path class="cls-4" d="M336.6,273.66H35.31A35.31,35.31,0,0,0,0,309V441.38a8.83,8.83,0,0,0,8.83,8.83H450.21a8.83,8.83,0,0,0,8.82-8.83V309a35,35,0,0,0-22.33-32.75Z"/><path class="cls-5" d="M53,309H88.28a35.31,35.31,0,0,1,35.31,35.31,17.66,17.66,0,0,1-17.66,17.65H53a17.65,17.65,0,0,1-17.66-17.65V326.62A17.65,17.65,0,0,1,53,309Z"/><path class="cls-5" d="M370.76,309h35.31a17.65,17.65,0,0,1,17.65,17.65v17.66a17.65,17.65,0,0,1-17.65,17.65h-53a17.65,17.65,0,0,1-17.65-17.65A35.31,35.31,0,0,1,370.76,309Z"/><path class="cls-6" d="M53,414.9H70.62a8.82,8.82,0,0,1,8.83,8.82v26.49H44.14V423.72A8.82,8.82,0,0,1,53,414.9Z"/><path class="cls-6" d="M388.41,414.9h17.66a8.83,8.83,0,0,1,8.83,8.82v26.49H379.59V423.72A8.82,8.82,0,0,1,388.41,414.9Z"/><rect id="Rectangle-path" class="cls-7" x="158.9" y="361.93" width="141.24" height="52.97" rx="8.83"/><rect class="cls-8" x="167.72" y="361.93" width="123.59" height="52.97" rx="8.83"/><path class="cls-9" d="M391,308.33l86.88-61.85A80.8,80.8,0,0,0,512,180.66V55.9a4.44,4.44,0,0,0-2.65-4.06L390.18.36a4.42,4.42,0,0,0-3.53,0L267.48,51.84a4.42,4.42,0,0,0-2.65,4.06V180.66A80.8,80.8,0,0,0,299,246.48l86.87,61.85A4.42,4.42,0,0,0,391,308.33Z"/><path class="cls-10" d="M319.45,217.72a45.69,45.69,0,0,1-19.31-37.06V76.21l88.27-38.14,88.28,38.14V180.66a45.7,45.7,0,0,1-19.32,37.07l-69,49.08Z"/><path class="cls-11" d="M319.45,217.72a45.69,45.69,0,0,1-19.31-37.06V76.21l88.27-38.14,88.28,38.14V180.66a45.7,45.7,0,0,1-19.32,37.07l-69,49.08Z"/><path class="cls-12" d="M370.76,202.64a8.82,8.82,0,0,1-5.3-1.77l-35.31-26.48a8.83,8.83,0,0,1,10.59-14.13l28.47,21.35L434.48,100a8.83,8.83,0,0,1,13.79,11l-70.62,88.28A8.84,8.84,0,0,1,370.76,202.64Z"/></svg>